HIERARCHY
ROOT Hips
{
	OFFSET 0.00000 0.00000 0.00000
	CHANNELS 6 Xposition Yposition Zposition Zrotation Yrotation Xrotation 
	JOINT LHipJoint
	{
		OFFSET 0 0 0
		CHANNELS 3 Zrotation Yrotation Xrotation
		JOINT LeftHip
		{
			OFFSET 1.29432 -1.88279 0.59910
			CHANNELS 3 Zrotation Yrotation Xrotation
			JOINT LeftKnee
			{
				OFFSET 2.63039 -7.22694 0.00000
				CHANNELS 3 Zrotation Yrotation Xrotation
				JOINT LeftAnkle
				{
					OFFSET 2.70674 -7.43672 0.00000
					CHANNELS 3 Zrotation Yrotation Xrotation
					JOINT LeftToe
					{
						OFFSET 0.15066 -0.41394 2.09027
						CHANNELS 3 Zrotation Yrotation Xrotation
						End Site
						{
							OFFSET 0.00000 -0.00000 1.07518
						}
					}
				}
			}
		}
	}
	JOINT RHipJoint
	{
		OFFSET 0 0 0
		CHANNELS 3 Zrotation Yrotation Xrotation
		JOINT RightHip
		{
			OFFSET -1.37068 -1.88279 0.59910
			CHANNELS 3 Zrotation Yrotation Xrotation
			JOINT RightKnee
			{
				OFFSET -2.57023 -7.06166 0.00000
				CHANNELS 3 Zrotation Yrotation Xrotation
				JOINT RightAnkle
				{
					OFFSET -2.76461 -7.59570 0.00000
					CHANNELS 3 Zrotation Yrotation Xrotation
					JOINT RightToe
					{
						OFFSET -0.24175 -0.64785 2.19719
						CHANNELS 3 Zrotation Yrotation Xrotation
						End Site
						{
							OFFSET -0.00000 -0.00000 1.14803
						}
					}
				}
			}
		}
	}
	JOINT lowerback
	{
		OFFSET 0 0 0
		CHANNELS 3 Zrotation Yrotation Xrotation
		JOINT Chest
		{
			OFFSET -0.03138 2.03983 -0.23106
			CHANNELS 3 Zrotation Yrotation Xrotation
			JOINT Chest2
			{
				OFFSET -0.00325 2.06238 -0.06878
				CHANNELS 3 Zrotation Yrotation Xrotation
				JOINT lowerneck
				{
					OFFSET 0 0 0
					CHANNELS 3 Zrotation Yrotation Xrotation
					JOINT Neck
					{
						OFFSET -0.00002 1.75318 0.18090
						CHANNELS 3 Zrotation Yrotation Xrotation
						JOINT Head
						{
							OFFSET 0.08806 1.75856 -0.25387
							CHANNELS 3 Zrotation Yrotation Xrotation
							End Site
							{
								OFFSET 0.02554 1.78597 -0.10684
							}
						}
					}
				}
				JOINT LeftCollar
				{
					OFFSET 0 0 0
					CHANNELS 3 Zrotation Yrotation Xrotation
					JOINT LeftShoulder
					{
						OFFSET 3.09657 1.33597 -0.04414
CHANNELS 3 Zrotation Xrotation Yrotation
						JOINT LeftElbow
						{
OFFSET 0 -5.342980 -0.000000
CHANNELS 3 Zrotation Xrotation Yrotation
							JOINT LeftWrist
							{
OFFSET 0 -3.672620 -0.000000
CHANNELS 3 Zrotation Xrotation Yrotation
								JOINT lhand
								{
									OFFSET 0 0 0
CHANNELS 3 Zrotation Xrotation Yrotation
									JOINT LFingers
									{
OFFSET 0 -0.599300 -0.000000
CHANNELS 3 Zrotation Xrotation Yrotation
										End Site
										{
OFFSET 0 -0.483170 -0.000000
										}
									}
								}
								JOINT LThumb
								{
OFFSET 0 0.000000 0.000000
CHANNELS 3 Zrotation Xrotation Yrotation
									End Site
									{
OFFSET 0 -0.490550 0.490550
									}
								}
							}
						}
					}
				}
				JOINT RightCollar
				{
					OFFSET 0 0 0
					CHANNELS 3 Zrotation Yrotation Xrotation
					JOINT RightShoulder
					{
						OFFSET -3.16460 1.32273 -0.23382
CHANNELS 3 Zrotation Xrotation Yrotation
						JOINT RightElbow
						{
OFFSET 0 -5.549670 0.033480
CHANNELS 3 Zrotation Xrotation Yrotation
							JOINT RightWrist
							{
OFFSET 0 -3.694010 0.000000
CHANNELS 3 Zrotation Xrotation Yrotation
								JOINT rhand
								{
									OFFSET 0 0 0
CHANNELS 3 Zrotation Xrotation Yrotation
									JOINT RFingers
									{
OFFSET 0 -0.638110 0.000000
CHANNELS 3 Zrotation Xrotation Yrotation
										End Site
										{
OFFSET 0 -0.514460 0.000000
										}
									}
								}
								JOINT RThumb
								{
OFFSET 0 0.000000 0.000000
CHANNELS 3 Zrotation Xrotation Yrotation
									End Site
									{
OFFSET 0 -0.522320 0.522320
									}
								}
							}
						}
					}
				}
			}
		}
	}
}
MOTION
Frames: 12
Frame Time: 0.008333333333333333
9.796096 14.343795 12.277105 164.967569 -41.423854 -143.879322 0.000000 0.000000 0.000000 -0.618211 -15.352668 -86.925829 11.745151 18.280685 65.178591 -0.743581 -15.077228 6.360644 0.303141 3.539769 9.785394 0.000000 0.000000 0.000000 -1.653161 3.902698 -8.475756 -10.742171 -17.806603 61.941470 -1.228982 -10.985186 -27.536475 -2.434610 9.717867 -28.068017 1.453542 -2.431240 23.752336 -1.859058 -3.826531 7.140220 -1.742557 -2.201365 -5.566171 -8.989305 -14.738590 -1.122222 28.540648 -18.318552 -17.250214 9.890559 -10.755924 -0.981072 0.000000 0.000000 0.000000 2.322848 -35.416384 -94.397285 82.473167 -59.784753 53.486302 43.649560 38.039382 -48.773844 0.000000 0.000000 0.000000 -7.125000 0.000000 0.000000 8.140330 87.577871 -7.796845 0.000000 0.000000 0.000000 -37.207434 -51.123670 -6.609867 -149.885059 -40.988997 -108.514098 -14.331866 -20.223215 -5.416785 0.000000 0.000000 0.000000 7.125000 0.000000 0.000000 9.201199 24.383427 4.617707
9.771222 14.276901 12.283439 164.967720 -40.780035 -144.345740 0.000000 0.000000 0.000000 -0.821400 -15.012189 -86.855404 12.007521 18.393461 66.012235 -0.762742 -15.249215 5.895484 0.369878 3.890264 10.770112 0.000000 0.000000 0.000000 -1.566540 5.598964 -7.372500 -10.795551 -17.833575 62.115856 -1.164596 -11.850596 -27.811112 -2.425413 9.700460 -28.012609 1.417662 -2.381701 23.710282 -1.786310 -3.784793 7.239878 -1.660088 -2.188427 -5.426613 -9.126756 -14.613317 -1.916577 28.459634 -18.202238 -17.027000 9.808955 -10.633888 -0.799043 0.000000 0.000000 0.000000 1.501246 -36.853465 -95.651484 81.402046 -59.713943 52.561378 44.804012 38.247793 -50.146916 0.000000 0.000000 0.000000 -7.125000 0.000000 0.000000 95.526169 -15.217395 94.253565 0.000000 0.000000 0.000000 -37.653452 -53.123726 -10.524037 -148.738902 -41.949250 -107.755680 -16.501507 -26.109183 -6.574067 0.000000 0.000000 0.000000 7.125000 0.000000 0.000000 7.541733 23.137558 4.000080
9.725769 14.275704 12.300738 164.950860 -40.403576 -144.792738 0.000000 0.000000 0.000000 -1.019036 -15.096277 -86.397988 12.194309 18.471580 66.603413 -0.777569 -15.394115 5.369344 0.358492 3.845943 10.643655 0.000000 0.000000 0.000000 -2.491846 4.966196 -7.248958 -10.769061 -17.820185 62.029243 -1.079280 -11.434010 -26.819473 -2.626779 10.064721 -29.186711 2.223120 -1.811703 23.979503 -2.256360 -2.867033 6.967185 -2.876949 -1.738972 -5.872943 -6.457878 -14.993675 -0.834136 27.679428 -18.539696 -17.746465 9.330287 -10.988302 -1.532783 0.000000 0.000000 0.000000 1.212979 -37.609232 -101.148825 79.508788 -59.579898 50.927122 50.229116 39.206616 -44.576861 0.000000 0.000000 0.000000 -7.125000 0.000000 0.000000 60.296098 78.921238 -45.282861 0.000000 0.000000 0.000000 -37.999747 -52.445739 -16.130537 -148.264364 -42.335411 -107.437590 -17.856424 -33.218906 -7.731092 0.000000 0.000000 0.000000 7.125000 0.000000 0.000000 6.521503 21.880838 3.642636
9.667181 14.282595 12.308827 165.133447 -40.080286 -145.231566 0.000000 0.000000 0.000000 -0.877791 -15.147122 -86.201349 12.392502 18.551613 67.227645 -0.766000 -15.304729 4.775982 0.288385 3.453324 9.543513 0.000000 0.000000 0.000000 -2.705178 5.328089 -6.701628 -10.699694 -17.784937 61.802384 -1.087432 -11.113626 -26.605038 -2.603914 10.024389 -29.055889 2.470001 -2.384467 24.061304 -1.959324 -3.526680 6.935144 -2.498560 -2.060715 -5.988174 -7.034129 -14.555677 -2.418011 27.154743 -18.192670 -16.553068 9.054108 -10.584939 -0.980289 0.000000 0.000000 0.000000 2.067799 -37.148528 -99.179504 79.215165 -59.555606 50.674029 51.208300 38.530470 -41.572347 0.000000 0.000000 0.000000 -7.125000 0.000000 0.000000 50.816527 81.969603 -44.300622 0.000000 0.000000 0.000000 -37.109431 -54.482771 -16.900521 -147.403557 -43.016331 -106.853616 -17.674579 -39.577339 -8.519532 0.000000 0.000000 0.000000 7.125000 0.000000 0.000000 6.641028 21.070355 3.835027
9.626307 14.265745 12.322160 165.150826 -39.590550 -145.547952 0.000000 0.000000 0.000000 -0.992016 -15.084614 -85.993437 12.577116 18.623948 67.806585 -0.759011 -15.277512 4.187748 0.335337 3.718846 10.287295 0.000000 0.000000 0.000000 -3.041285 5.824517 -6.214248 -10.661879 -17.765591 61.678671 -1.068064 -11.181226 -26.517757 -2.585254 9.991263 -28.948455 2.433920 -2.139811 24.180669 -1.839441 -3.176921 6.670131 -2.440110 -1.886059 -6.308501 -6.096203 -14.483498 -1.837388 26.443379 -18.032222 -16.857433 8.810844 -10.552083 -1.384450 0.000000 0.000000 0.000000 2.505201 -35.916489 -99.094882 80.214044 -59.634509 51.535575 50.762583 37.611080 -40.563761 0.000000 0.000000 0.000000 -7.125000 0.000000 0.000000 45.857077 80.976527 -39.001912 0.000000 0.000000 0.000000 -37.392404 -54.175817 -19.675035 -146.651414 -43.595703 -106.337893 -17.467417 -45.236493 -8.085600 0.000000 0.000000 0.000000 7.125000 0.000000 0.000000 6.797264 21.532216 3.854871
9.587379 14.244734 12.324591 165.352775 -39.239834 -146.015614 0.000000 0.000000 0.000000 -0.969946 -14.903432 -85.805970 12.777210 18.700112 68.431934 -0.758857 -15.312050 3.816959 0.448222 4.286354 11.885055 0.000000 0.000000 0.000000 -2.625868 6.972120 -5.321375 -10.617157 -17.742576 61.531864 -0.905704 -12.501562 -26.481870 -2.610364 10.035745 -29.092739 2.136569 -2.653968 24.354153 -1.286016 -3.866047 6.603232 -1.453387 -2.216921 -6.456833 -6.889816 -13.917003 -2.612831 26.020071 -17.405818 -16.285600 8.748281 -10.105904 -1.155009 0.000000 0.000000 0.000000 2.919795 -34.884498 -94.953093 83.336705 -59.829855 54.232794 51.915507 44.326456 -49.909540 0.000000 0.000000 0.000000 -7.125000 0.000000 0.000000 121.006725 -86.021251 123.554811 0.000000 0.000000 0.000000 -37.059277 -55.741710 -19.325659 -145.989182 -44.092549 -105.879404 -17.544957 -49.914392 -6.145535 0.000000 0.000000 0.000000 7.125000 0.000000 0.000000 6.784104 23.545877 3.534210
9.544654 14.222371 12.325389 165.835506 -39.038300 -146.706003 0.000000 0.000000 0.000000 -0.719461 -14.614289 -85.678929 12.990693 18.778657 69.096403 -0.761574 -15.355401 3.683346 0.658082 5.184299 14.436006 0.000000 0.000000 0.000000 -1.967349 7.986774 -4.426734 -10.556822 -17.711233 61.333667 -0.783430 -13.514782 -26.522335 -2.666621 10.133808 -29.412003 2.287217 -3.110951 24.594298 -0.788955 -4.361712 6.429244 -0.830885 -2.452450 -6.761278 -7.960121 -13.309602 -2.960232 25.692913 -16.699347 -15.440006 8.791559 -9.594767 -0.896508 0.000000 0.000000 0.000000 3.684479 -33.946583 -93.842989 82.051497 -59.759197 53.122040 77.653546 73.426878 -49.591398 0.000000 0.000000 0.000000 -7.125000 0.000000 0.000000 154.536002 -69.515410 164.709959 0.000000 0.000000 0.000000 -36.334908 -56.410637 -18.208637 -145.449345 -44.487690 -105.502141 -18.722026 -54.065740 -5.609516 0.000000 0.000000 0.000000 7.125000 0.000000 0.000000 5.927857 24.062004 3.009917
9.491026 14.227490 12.320533 165.838801 -38.676186 -146.996295 0.000000 0.000000 0.000000 -1.044611 -14.451506 -85.436033 13.181040 18.846552 69.686922 -0.763371 -15.465310 3.032067 0.574583 4.850911 13.484629 0.000000 0.000000 0.000000 -2.782618 7.181765 -4.404160 -10.470672 -17.666164 61.050100 -0.740239 -13.117010 -25.782457 -2.839624 10.430540 -30.382820 2.223091 -3.413769 24.755580 -0.502572 -4.726336 6.249253 -0.355234 -2.621239 -7.025013 -8.277227 -12.794944 -3.325787 24.964068 -16.089067 -14.795460 8.612968 -9.167173 -0.802497 0.000000 0.000000 0.000000 4.834477 -31.893458 -92.760296 86.351294 -59.943514 56.840882 56.471083 48.064038 -46.639857 0.000000 0.000000 0.000000 -7.125000 0.000000 0.000000 100.623938 -83.376135 106.258486 0.000000 0.000000 0.000000 -36.161704 -56.631601 -17.828411 -144.816671 -44.942410 -105.057229 -19.388716 -57.394534 -4.981027 0.000000 0.000000 0.000000 7.125000 0.000000 0.000000 5.445666 24.701381 2.683409
9.449286 14.209380 12.322145 165.672212 -38.166403 -147.164452 0.000000 0.000000 0.000000 -1.550681 -14.198638 -85.308529 13.363058 18.909251 70.249445 -0.758664 -15.543758 2.344011 0.445559 4.282733 11.873551 0.000000 0.000000 0.000000 -3.291829 7.391062 -4.038298 -10.426908 -17.643054 60.905894 -0.670491 -13.345016 -25.455431 -2.925617 10.573516 -30.854751 1.892937 -3.503517 24.901647 -0.300282 -4.911783 6.224934 0.119008 -2.708457 -7.087828 -8.346322 -12.499423 -3.485650 24.740031 -15.696361 -14.920793 8.590547 -8.968785 -0.894042 0.000000 0.000000 0.000000 5.135163 -31.499650 -92.083226 86.837803 -59.961935 57.261866 56.073418 47.174132 -46.407467 0.000000 0.000000 0.000000 -7.125000 0.000000 0.000000 105.322072 -84.106874 111.108553 0.000000 0.000000 0.000000 -36.466029 -57.133768 -18.166442 -144.200021 -45.373882 -104.619694 -20.149162 -59.696256 -4.005825 0.000000 0.000000 0.000000 7.125000 0.000000 0.000000 4.897577 25.710381 2.296095
9.405390 14.184878 12.332875 165.396174 -37.551061 -147.253898 0.000000 0.000000 0.000000 -2.063518 -14.052222 -85.164756 13.538465 18.967963 70.789847 -0.754953 -15.609751 1.876864 0.488080 4.478074 12.425993 0.000000 0.000000 0.000000 -3.933905 7.854344 -3.673953 -10.431975 -17.645690 60.922589 -0.662656 -13.363704 -25.411520 -2.796344 10.357231 -30.142056 1.539487 -3.542460 24.992885 -0.164239 -5.045480 6.208913 0.514774 -2.770789 -7.113407 -8.479906 -12.291168 -3.348789 24.627349 -15.393681 -15.255388 8.636571 -8.844150 -1.062421 0.000000 0.000000 0.000000 4.771086 -31.410783 -91.672102 86.121477 -59.942903 56.641742 56.164649 46.915507 -45.966760 0.000000 0.000000 0.000000 -7.125000 0.000000 0.000000 101.486273 -83.948521 107.510262 0.000000 0.000000 0.000000 -36.820354 -57.868062 -19.005877 -143.289039 -45.994719 -103.967794 -20.717564 -62.754100 -3.515466 0.000000 0.000000 0.000000 7.125000 0.000000 0.000000 4.479277 26.217922 2.046017
9.364557 14.177545 12.340834 165.109352 -36.915396 -147.348574 0.000000 0.000000 0.000000 -2.593704 -13.917014 -84.894805 13.688781 19.016864 71.251789 -0.751373 -15.736695 1.235194 0.505497 4.556504 12.648078 0.000000 0.000000 0.000000 -4.388548 8.651637 -3.232156 -10.443741 -17.651934 60.961542 -0.668338 -13.560695 -25.661676 -2.583104 9.986472 -28.933684 1.100092 -3.975479 25.349543 0.062765 -5.696475 6.105809 1.242376 -3.074668 -7.349438 -9.474223 -11.708850 -3.828016 24.464875 -14.656128 -14.890521 8.754237 -8.384901 -0.927894 0.000000 0.000000 0.000000 5.016191 -30.227386 -89.520216 86.968885 -59.964297 57.375295 56.645456 48.327599 -46.670037 0.000000 0.000000 0.000000 -7.125000 0.000000 0.000000 110.212968 -83.887156 116.077752 0.000000 0.000000 0.000000 -36.229951 -59.375542 -18.544843 -142.121468 -46.760576 -103.122597 -20.957314 -65.525877 -3.374565 0.000000 0.000000 0.000000 7.125000 0.000000 0.000000 4.300428 26.362636 1.949098
9.325063 14.150956 12.344698 165.209876 -36.488279 -147.749215 0.000000 0.000000 0.000000 -2.969513 -13.453958 -84.751875 13.865250 19.072536 71.792481 -0.751810 -15.912675 0.665645 0.394733 4.029720 11.160811 0.000000 0.000000 0.000000 -4.424373 9.283166 -2.688297 -10.439047 -17.649433 60.945918 -0.702944 -13.713167 -26.095563 -2.299397 9.463265 -27.255887 1.314840 -3.475700 25.680866 -0.001155 -5.030119 6.271263 0.861790 -2.771826 -7.351451 -7.620852 -11.947302 -4.120587 23.560289 -14.968585 -15.568735 8.195161 -8.632582 -1.289953 0.000000 0.000000 0.000000 5.001522 -30.037931 -90.923264 87.788832 -59.976337 58.085334 57.732724 49.840806 -47.075838 0.000000 0.000000 0.000000 -7.125000 0.000000 0.000000 117.873610 -83.370193 123.921516 0.000000 0.000000 0.000000 -37.835823 -59.545980 -22.960689 -140.569804 -47.725892 -101.982724 -20.461738 -69.211642 -4.104886 0.000000 0.000000 0.000000 7.125000 0.000000 0.000000 4.659998 25.596514 2.195436
